<svg xmlns="http://www.w3.org/2000/svg" xmlns:xlink="http://www.w3.org/1999/xlink" width="423" height="100" viewBox="0 0 423 100">
  <defs>
    <style>
      .cls-1 {
        fill: #fff;
        fill-rule: evenodd;
        filter: url(#filter);
      }
    </style>
    <filter id="filter" x="-2" y="-2" width="429" height="105" filterUnits="userSpaceOnUse">
      <feOffset result="offset" dx="3.536" dy="3.536" in="SourceAlpha"/>
      <feGaussianBlur result="blur" stdDeviation="4"/>
      <feFlood result="flood"/>
      <feComposite result="composite" operator="in" in2="blur"/>
      <feBlend result="blend" in="SourceGraphic"/>
    </filter>
  </defs>
  <path id="Léo_Chenot" data-name="Léo Chenot" class="cls-1" d="M21.906,27.5q-5.112.652-10.219,1.34L11.7,80.493q16.573-.614,33.157-1.124-0.008-4.2-.017-8.4-11.451.495-22.894,1.059L21.906,27.5h0ZM79.492,77.829a18.74,18.74,0,0,0,6.178-3.664q-1.4-3.515-2.8-7.009a23.22,23.22,0,0,1-4.968,2.569,19.389,19.389,0,0,1-5.85.983q-4.183.146-6.315-2.437a11.493,11.493,0,0,1-2.389-6.829l0.1-.236q11.331-.564,22.669-1.039-0.008-2.982-.016-5.965c-0.016-5.952-1.394-10.617-4.132-13.939s-6.662-4.776-11.767-4.378A16.6,16.6,0,0,0,57.477,42.8c-3.081,4.185-4.614,9.318-4.6,15.462q0,0.759,0,1.517C52.892,65.7,54.5,70.45,57.69,74.121s7.627,5.464,13.3,5.325a25.109,25.109,0,0,0,8.5-1.617h0ZM74.665,46.45a10.289,10.289,0,0,1,1.386,5.756q0,0.43,0,.859Q69.8,53.4,63.545,53.773l-0.071-.188a13.117,13.117,0,0,1,2-6.311,5.929,5.929,0,0,1,4.754-2.658,4.554,4.554,0,0,1,4.433,1.834h0ZM64.434,29.521q4.372-.391,8.746-0.758,4.853-5.471,9.707-11.024l-0.071-.23q-5.711.51-11.418,1.066-3.482,5.509-6.963,10.947h0Zm29.68,27.454c0.017,6.477,1.618,11.692,4.806,15.706s7.593,5.992,13.22,5.895A15.846,15.846,0,0,0,125.3,72.09q4.752-6.363,4.731-16.384c0-.287,0-0.574,0-0.861-0.015-6.641-1.622-12.018-4.822-16.078s-7.617-5.933-13.247-5.628a16.623,16.623,0,0,0-13.14,6.94c-3.154,4.3-4.723,9.637-4.706,16.06Q94.113,56.557,94.114,56.975Zm10.231-1.254a21.54,21.54,0,0,1,1.823-9.513,6.462,6.462,0,0,1,5.813-3.964,5.859,5.859,0,0,1,5.884,3.433,20.815,20.815,0,0,1,1.888,9.489q0,0.428,0,.855a21.8,21.8,0,0,1-1.824,9.694,6.277,6.277,0,0,1-5.813,3.8,6.016,6.016,0,0,1-5.918-3.453,20.869,20.869,0,0,1-1.853-9.494c0-.281,0-0.563,0-0.844h0Zm86.436,0.931q0,5.961-2.265,8.848t-6.879,2.916a8.428,8.428,0,0,1-7.589-4.375q-2.733-4.406-2.741-11.424-0.006-6.082-.014-12.163-0.007-6.979,2.577-11.443t7.2-4.549q4.968-.083,7.35,2.769t2.383,8.726q5-.045,10.006-0.065c0.024-.084.047-0.168,0.07-0.252q0.139-9.916-5.15-15.346c-3.526-3.611-8.416-5.377-14.667-5.26a17.89,17.89,0,0,0-14.513,7.418q-5.524,7.222-5.506,18.294,0.008,6.019.017,12.037,0.017,11.12,5.691,18.08A18.151,18.151,0,0,0,181.645,77.8q9.042-.043,14.178-5.595t4.993-15.349c-0.023-.084-0.047-0.168-0.07-0.252q-4.983.013-9.965,0.044h0Zm30.278-45.305q-5.148-.046-10.3-0.055,0,32.783,0,65.565,5.136,0,10.274.014,0.007-16.633.014-33.266a7.313,7.313,0,0,1,2.836-2.564,8.738,8.738,0,0,1,4.1-.868,4.808,4.808,0,0,1,4.278,2.246q1.425,2.218,1.42,7.5l-0.021,27q5.138,0.024,10.274.059l0.03-26.846q0.011-9.825-3.384-14.591a11.056,11.056,0,0,0-9.35-4.853,10.042,10.042,0,0,0-5.779,1.678,14.108,14.108,0,0,0-4.407,4.816q0.006-12.916.011-25.832h0ZM280.3,76.725a18.115,18.115,0,0,0,6.2-3.559q-1.382-3.714-2.763-7.44a22.058,22.058,0,0,1-4.984,2.41,18.218,18.218,0,0,1-5.86.722,7.488,7.488,0,0,1-6.311-2.96,13.619,13.619,0,0,1-2.363-7.509c0.036-.082.071-0.165,0.106-0.247q11.352,0.217,22.7.523,0.008-3.094.014-6.189,0.02-9.26-4.069-14.9c-2.726-3.761-6.649-5.758-11.767-5.939a14.242,14.242,0,0,0-12.794,6q-4.659,6.332-4.672,16.477l0,1.667q-0.014,9.754,4.764,16T271.779,78.1a23.837,23.837,0,0,0,8.516-1.377h0Zm-4.684-33.386a12.033,12.033,0,0,1,1.361,6.208c0,0.3,0,.6,0,0.907q-6.266-.175-12.532-0.318c-0.023-.07-0.046-0.139-0.07-0.209a13.744,13.744,0,0,1,2.036-6.607,5.224,5.224,0,0,1,4.775-2.369,4.961,4.961,0,0,1,4.432,2.389h0Zm20.875-9.813q-0.051,22.029-.1,44.058,5.135,0.085,10.269.18,0.041-15.815.079-31.63a7.664,7.664,0,0,1,2.874-2.591,7.753,7.753,0,0,1,4.03-.786A5.231,5.231,0,0,1,317.9,44.92q1.419,2.014,1.407,6.645-0.033,13.223-.068,26.447,5.151,0.107,10.3.225l0.069-26.218q0.022-9.014-3.2-13.391a11.48,11.48,0,0,0-8.991-4.759,10.465,10.465,0,0,0-6.231,1.482,13.8,13.8,0,0,0-4.692,4.956l-0.441-6.287q-4.785-.259-9.572-0.492h0Zm42.794,24.2c-0.017,6.367,1.557,11.621,4.722,15.7s7.56,6.164,13.183,6.313c5.6,0.149,9.99-1.675,13.172-5.4s4.777-8.584,4.788-14.653c0-.261,0-0.523,0-0.784,0.012-6.044-1.57-11.093-4.744-15.217a17.764,17.764,0,0,0-13.185-6.941c-5.595-.47-9.979,1.172-13.151,4.963S339.3,50.59,339.282,56.9q0,0.411,0,.822h0Zm10.228-.3a18.825,18.825,0,0,1,1.867-8.947,5.651,5.651,0,0,1,5.821-3.118,6.771,6.771,0,0,1,5.856,3.888,19.469,19.469,0,0,1,1.842,9.035c0,0.265,0,.53,0,0.8a18.393,18.393,0,0,1-1.864,8.9,5.919,5.919,0,0,1-5.823,3.192,6.452,6.452,0,0,1-5.895-3.673,20.135,20.135,0,0,1-1.8-9.256c0-.271,0-0.541,0-0.812h0Zm37.661-26.892q-0.006,4.852-.013,9.7-2.769-.275-5.54-0.542L381.6,47.27q2.771,0.233,5.541.474-0.013,10.107-.028,20.214c-0.006,4.4.943,7.651,2.849,9.739s4.627,3.179,8.162,3.3a17.577,17.577,0,0,0,3.178-.158,20.433,20.433,0,0,0,3-.692q-0.42-3.764-.839-7.539a11.436,11.436,0,0,1-1.369.233,9.571,9.571,0,0,1-1.4.019,3.388,3.388,0,0,1-2.439-1.091,4.789,4.789,0,0,1-.927-3.286q0.007-9.913.017-19.826,3.207,0.295,6.413.6l0-7.291q-3.2-.349-6.41-0.686,0-4.768.008-9.535-5.094-.623-10.193-1.212h0Z"/>
</svg>
